<?xml version="1.0" encoding="UTF-8" standalone="no"?>
<!-- Created with Inkscape (http://www.inkscape.org/) -->

<svg
   width="127.47345mm"
   height="131.6633mm"
   viewBox="0 0 127.47345 131.6633"
   version="1.1"
   id="svg1"
   inkscape:version="1.3.2 (091e20e, 2023-11-25, custom)"
   sodipodi:docname="HeartMask.svg"
   xmlns:inkscape="http://www.inkscape.org/namespaces/inkscape"
   xmlns:sodipodi="http://sodipodi.sourceforge.net/DTD/sodipodi-0.dtd"
   xmlns="http://www.w3.org/2000/svg"
   xmlns:svg="http://www.w3.org/2000/svg">
  <sodipodi:namedview
     id="namedview1"
     pagecolor="#ffffff"
     bordercolor="#000000"
     borderopacity="0.25"
     inkscape:showpageshadow="2"
     inkscape:pageopacity="0.0"
     inkscape:pagecheckerboard="0"
     inkscape:deskcolor="#d1d1d1"
     inkscape:document-units="mm"
     inkscape:zoom="0.70911897"
     inkscape:cx="396.97147"
     inkscape:cy="561.25984"
     inkscape:window-width="1920"
     inkscape:window-height="992"
     inkscape:window-x="-8"
     inkscape:window-y="-8"
     inkscape:window-maximized="1"
     inkscape:current-layer="layer1" />
  <defs
     id="defs1" />
  <g
     inkscape:label="Layer 1"
     inkscape:groupmode="layer"
     id="layer1"
     transform="translate(-23.397004,-82.446516)">
    <path
       id="path3"
       style="fill:#000000;fill-opacity:1;stroke-width:1.355;stroke-linecap:square;stroke-linejoin:bevel"
       d="M 61.564201,82.458533 C 42.081199,81.931334 24.28973,98.830886 23.482556,118.25554 c -1.009918,12.79631 7.103113,23.7938 14.741445,33.20034 10.890416,12.53211 20.561562,27.4047 22.47175,44.25781 0.675777,6.24697 -0.339337,12.63819 -2.708977,18.39612 8.233263,-4.63117 16.389983,-10.09216 24.514285,-15.15542 19.592821,-12.77609 39.212321,-25.96148 55.911381,-42.44934 9.34572,-9.44807 15.04561,-23.47807 11.28794,-36.67417 -4.12215,-16.31921 -20.47258,-28.797256 -37.45064,-27.216426 -6.79566,0.461672 -13.4568,2.871151 -18.942257,6.915388 C 86.4731,89.005571 74.112231,82.358142 61.564201,82.458533 Z"
       inkscape:export-filename="..\..\..\..\heart_mask.svg"
       inkscape:export-xdpi="96"
       inkscape:export-ydpi="96" />
  </g>
</svg>
