<svg width="127.47mm" height="131.66mm" version="1.1" viewBox="0 0 127.47 131.66" xmlns="http://www.w3.org/2000/svg">
 <g transform="translate(-.26384 -.36109)">
  <path d="m38.431 0.37311c-19.483-0.5272-37.274 16.372-38.082 35.797-1.0099 12.796 7.1031 23.794 14.741 33.2 10.89 12.532 20.562 27.405 22.472 44.258 0.67578 6.247-0.33934 12.638-2.709 18.396 8.2333-4.6312 16.39-10.092 24.514-15.155 19.593-12.776 39.212-25.961 55.911-42.449 9.3457-9.4481 15.046-23.478 11.288-36.674-4.1222-16.319-20.473-28.797-37.451-27.216-6.7957 0.46167-13.457 2.8712-18.942 6.9154-6.8344-10.524-19.195-17.172-31.743-17.071z" stroke-linecap="square" stroke-linejoin="bevel" stroke-width="1.355"/>
 </g>
</svg>
