<?xml version="1.0" encoding="UTF-8" standalone="no"?>
<!-- Created with Inkscape (http://www.inkscape.org/) -->

<svg
   width="210mm"
   height="297mm"
   viewBox="0 0 210 297"
   version="1.1"
   id="svg1"
   xml:space="preserve"
   inkscape:version="1.3.2 (091e20e, 2023-11-25, custom)"
   sodipodi:docname="ThriftMeLogo.svg"
   xmlns:inkscape="http://www.inkscape.org/namespaces/inkscape"
   xmlns:sodipodi="http://sodipodi.sourceforge.net/DTD/sodipodi-0.dtd"
   xmlns="http://www.w3.org/2000/svg"
   xmlns:svg="http://www.w3.org/2000/svg"><sodipodi:namedview
     id="namedview1"
     pagecolor="#ffffff"
     bordercolor="#000000"
     borderopacity="0.25"
     inkscape:showpageshadow="2"
     inkscape:pageopacity="0.0"
     inkscape:pagecheckerboard="0"
     inkscape:deskcolor="#d1d1d1"
     inkscape:document-units="mm"
     inkscape:zoom="0.70911897"
     inkscape:cx="396.26637"
     inkscape:cy="561.25984"
     inkscape:window-width="1920"
     inkscape:window-height="992"
     inkscape:window-x="-8"
     inkscape:window-y="-8"
     inkscape:window-maximized="1"
     inkscape:current-layer="layer1" /><defs
     id="defs1" /><g
     inkscape:label="Layer 1"
     inkscape:groupmode="layer"
     id="layer1"><path
       style="fill:#000000"
       d="m 107.57227,236.00584 c -7.50122,-1.67739 -13.528504,-6.78135 -16.270467,-13.778 -2.047042,-5.22341 -1.938215,-11.68886 0.286137,-16.99949 1.339934,-3.19909 2.934426,-5.16645 9.86697,-12.17439 3.70685,-3.74716 6.83782,-6.81302 6.95771,-6.81302 0.1199,0 0.21799,0.74518 0.21799,1.65595 v 1.65596 l -5.70882,5.68623 c -3.139855,3.12743 -6.237746,6.4189 -6.884205,7.31439 -3.793791,5.25523 -4.754718,11.98128 -2.598395,18.18759 1.724768,4.96421 5.392158,8.97821 10.33652,11.31343 3.04346,1.43743 5.58462,1.91063 9.35282,1.74161 5.48269,-0.24591 9.08089,-1.85998 13.10485,-5.87852 4.00187,-3.99649 5.71796,-8.12711 5.71796,-13.7631 0,-3.4487 -0.59258,-6.05177 -2.0294,-8.91472 -1.35678,-2.70348 -1.9069,-3.35052 -8.53975,-10.04425 l -5.93987,-5.99439 0.23216,-1.45884 0.23217,-1.45884 6.51191,6.39489 c 8.30311,8.1539 9.681,10.0115 11.25988,15.17997 0.62585,2.04873 0.71325,2.78684 0.72985,6.16389 0.0159,3.23477 -0.0748,4.15977 -0.57849,5.89795 -2.81868,9.72754 -10.97532,16.14053 -20.96586,16.484 -2.32718,0.08 -3.57158,-0.0137 -5.29167,-0.3983 z m 4.13082,-6.30709 c -0.21797,-0.73038 -1.47509,-33.7286 -1.88239,-49.41094 -0.0832,-3.20145 -0.21689,-6.46179 -0.29721,-7.24519 l -0.14603,-1.42435 -10.626026,10.57246 c -12.472856,12.40997 -13.381772,13.1396 -18.431239,14.79563 -2.082778,0.68307 -2.571546,0.73854 -6.614584,0.75076 -3.863666,0.0117 -4.592716,-0.0581 -6.340675,-0.60699 -6.794265,-2.13347 -12.279094,-7.20483 -14.664201,-13.55875 -0.867724,-2.31161 -1.484707,-5.6657 -1.484707,-8.07127 v -1.95113 l -1.522897,0.77388 c -2.019912,1.02645 -3.415983,1.32051 -6.306133,1.32828 -4.02803,0.0108 -7.977266,-1.29345 -12.21283,-4.03342 -0.98351,-0.63623 -3.499139,-2.43462 -5.590286,-3.99643 -5.142603,-3.84085 -7.209005,-5.21021 -10.454304,-6.92785 -6.0842509,-3.22022 -11.3869959,-4.55691 -19.2114662,-4.84273 l -4.630209,-0.16914 v -1.19063 -1.19062 H 112.20248 233.11707 l 0.0881,0.62222 c 0.0484,0.34222 0.0164,0.90777 -0.0712,1.25677 -0.15823,0.63044 -0.18238,0.63455 -3.72784,0.63455 -9.02692,0 -16.83969,2.3531 -24.48628,7.37492 -1.51746,0.99658 -4.78308,3.31372 -7.25694,5.14921 -7.33087,5.43916 -11.68175,7.31962 -16.93568,7.31962 -2.65184,0 -4.63397,-0.46016 -6.4138,-1.48898 -0.61846,-0.3575 -1.12539,-0.61521 -1.1265,-0.5727 -0.0795,3.04294 -0.38007,5.8777 -0.79628,7.51083 -1.34797,5.28915 -4.69137,10.05673 -9.12357,13.00992 -2.1348,1.42243 -3.29168,1.97974 -5.95313,2.86782 -2.10682,0.70301 -2.52487,0.75044 -6.61458,0.75044 -4.07417,0 -4.51577,-0.0496 -6.61458,-0.74302 -2.66047,-0.87897 -5.09282,-2.15573 -7.12519,-3.74009 -0.81057,-0.63189 -4.56782,-4.25307 -8.34944,-8.04705 l -6.87567,-6.89816 0.8496,-0.8496 0.84961,-0.84961 7.21669,7.16064 c 4.82508,4.7876 7.83178,7.55851 9.07275,8.36124 6.80634,4.40273 15.15618,4.43085 21.82017,0.0735 4.07095,-2.66186 6.93242,-6.51688 8.25497,-11.12122 0.87467,-3.04511 0.86903,-8.14412 -0.0121,-10.97088 -1.93352,-6.20264 -5.82483,-10.50329 -11.67843,-12.90694 -2.47012,-1.0143 -4.47205,-1.38988 -7.40833,-1.38988 -2.92979,0 -4.93294,0.37456 -7.40833,1.38526 -3.65152,1.49091 -4.9111,2.57055 -16.27067,13.94632 -5.96569,5.97419 -10.95299,10.86217 -11.08289,10.86217 -0.13305,0 -0.15725,-0.77987 -0.0554,-1.78594 0.17379,-1.71705 0.23631,-1.84224 1.62088,-3.24563 l 1.44012,-1.45969 -9.85817,-9.85554 -9.858169,-9.85554 -7.402735,0.0704 -7.402735,0.0704 1.5875,1.0227 c 0.945116,0.60886 4.749815,4.16874 9.402413,8.79739 4.298202,4.27609 7.927666,7.7747 8.065466,7.7747 0.13781,0 1.53308,-1.27854 3.1006,-2.84121 l 2.85005,-2.8412 2.69089,2.69089 2.69089,2.6909 -0.44468,13.04874 c -0.80802,23.71013 -1.51664,42.14017 -1.65381,43.01282 -0.14517,0.92345 -0.77614,1.17201 -1.00747,0.39687 z M 77.794281,194.96624 c 2.537142,-0.56086 4.919176,-1.56211 6.952276,-2.92225 1.398624,-0.93569 16.740303,-16.08566 16.740303,-16.53112 0,-0.43631 -15.056816,-15.26926 -16.47572,-16.23075 -1.894188,-1.28356 -4.317595,-2.34099 -6.808845,-2.97098 -1.870948,-0.47312 -2.745486,-0.54335 -5.414537,-0.43481 -5.481117,0.2229 -9.308928,1.89784 -13.105063,5.73441 -2.588732,2.6163 -3.701496,4.37014 -4.83961,7.62775 -1.043754,2.98753 -1.302751,7.59392 -0.603652,10.73623 0.773325,3.47595 3.120161,7.65898 5.613122,10.0049 3.144979,2.95948 6.745124,4.60069 11.73639,5.35033 1.686419,0.25328 4.037705,0.11547 6.205336,-0.36371 z m 50.791849,-29.03721 c 5.16689,-5.11213 8.29773,-8.00122 9.53354,-8.79739 l 1.8401,-1.18549 -7.38914,-0.0704 -7.38913,-0.0704 -4.3067,4.30076 c -2.36868,2.36542 -4.32146,4.18305 -4.33952,4.03918 -0.0181,-0.14386 -0.009,-0.91642 0.0208,-1.71678 0.0536,-1.45475 0.0543,-1.45596 2.41408,-3.84143 1.29826,-1.31242 2.36048,-2.47718 2.36048,-2.58835 0,-0.11117 -1.33945,-0.16847 -2.97656,-0.12732 l -2.97657,0.0748 -0.21276,6.06652 -0.21276,6.06652 2.72157,2.73088 c 1.49687,1.50198 2.83354,2.73087 2.97038,2.73087 0.13683,0 3.71083,-3.42536 7.94222,-7.61191 z m -80.385697,6.29539 c 4.331965,-2.13262 6.204237,-7.22092 4.239205,-11.52094 -1.410266,-3.08606 -3.612799,-4.58495 -7.087235,-4.82309 -2.545924,-0.1745 -3.909332,0.27826 -5.383213,1.78765 -0.93745,0.96003 -1.040456,1.20638 -1.133065,2.70978 -0.08646,1.4035 -0.0073,1.79292 0.522917,2.57349 1.93421,2.84734 5.366621,2.86464 7.238207,0.0365 0.792912,-1.19817 1.273371,-1.46292 1.974194,-1.08785 1.253545,0.67088 0.812682,2.076 -1.259496,4.01428 -4.754146,4.44695 -12.392432,-0.28377 -10.939668,-6.7754 0.168994,-0.75515 0.605702,-1.81219 0.970461,-2.34898 l 0.663199,-0.97598 -13.569435,0.0179 c -10.291893,0.0136 -13.409666,0.0899 -12.907976,0.31606 4.015077,1.80977 5.29869,2.47075 7.805209,4.01917 1.600729,0.98887 4.696354,3.12989 6.879166,4.75783 6.073457,4.52959 7.940928,5.72847 10.79284,6.92883 3.909925,1.64566 8.309052,1.79136 11.19469,0.37077 z m 137.602597,0.11874 c 3.57851,-1.20127 4.93174,-2.01688 12.25675,-7.38734 2.40109,-1.76041 5.05293,-3.64755 5.89298,-4.19366 1.95338,-1.26989 6.0613,-3.45534 7.60077,-4.04369 0.65484,-0.25026 1.30373,-0.55618 1.44198,-0.67982 0.1383,-0.12369 -5.77352,-0.22479 -13.14386,-0.22479 h -13.3952 l 0.82419,1.59807 c 1.86046,3.60737 0.55947,7.66119 -3.07591,9.5844 -1.6757,0.88649 -4.41313,0.8126 -6.07975,-0.16411 -1.30669,-0.76577 -2.71598,-2.4445 -2.99908,-3.57247 -0.12112,-0.48258 -0.0145,-0.77762 0.40344,-1.11602 0.72518,-0.58721 1.54535,-0.37658 2.0122,0.51678 0.19947,0.38168 0.73036,1.04355 1.17976,1.47082 0.66541,0.63262 1.0996,0.79661 2.33873,0.88331 1.26938,0.0888 1.6711,0.004 2.42334,-0.51226 1.56712,-1.07531 2.0087,-1.90817 2.0087,-3.78857 0,-1.47421 -0.0972,-1.79592 -0.80785,-2.67396 -1.3144,-1.62399 -2.5034,-2.09454 -5.27757,-2.08862 -2.05599,0.004 -2.56366,0.10066 -3.71673,0.7049 -1.76563,0.92525 -2.94459,2.14426 -3.79145,3.92023 -0.92254,1.9347 -0.97051,5.27747 -0.10332,7.20122 1.14052,2.53011 3.7778,4.66258 6.47253,5.23361 1.81101,0.38376 5.33199,0.0716 7.53535,-0.66803 z M 57.062599,160.50687 c 0.669,-0.76215 2.184891,-2.1001 3.368648,-2.97322 l 2.152284,-1.5875 -2.655117,-0.0756 c -1.460315,-0.0416 -3.769972,-0.0416 -5.132572,0 l -2.477455,0.0756 1.157991,1.53055 c 0.636896,0.8418 1.363108,2.18126 1.613806,2.97656 0.250698,0.79531 0.523368,1.44451 0.605934,1.44267 0.08256,-0.002 0.697482,-0.62691 1.366481,-1.38906 z m 52.097181,-1.23179 c 0,-1.44331 -0.0723,-2.81253 -0.1606,-3.04271 -0.13285,-0.34619 -0.65868,-0.41851 -3.04271,-0.41851 -1.58516,0 -2.88211,0.0874 -2.88211,0.19411 0,0.25951 5.62335,5.8913 5.88247,5.8913 0.11162,0 0.20295,-1.18088 0.20295,-2.62419 z m 59.79604,2.01327 c 4.2e-4,-0.63092 1.54159,-3.55195 2.37466,-4.50076 l 0.85495,-0.97373 h -5.31908 c -2.92549,0 -5.31907,0.0426 -5.31907,0.0947 0,0.0521 0.70877,0.53217 1.57506,1.06687 0.86628,0.5347 2.44384,1.84995 3.50568,2.92278 1.81476,1.83355 2.3273,2.13963 2.3278,1.39016 z m -62.57517,18.86617 -1.83889,-1.8531 0.8544,-0.85439 0.8544,-0.8544 1.02679,1.05384 c 0.90824,0.93216 1.04518,1.24478 1.18597,2.70749 0.0875,0.90951 0.0685,1.65365 -0.0423,1.65365 -0.11081,0 -1.02898,-0.83389 -2.04037,-1.85309 z m -62.837538,-33.6909 c 0,-0.19492 0.291233,-0.4871 0.647185,-0.64928 0.428818,-0.19538 0.699999,-0.58912 0.803713,-1.16695 0.08609,-0.47964 0.12228,-5.57504 0.08042,-11.32311 l -0.07611,-10.45104 h -1.294363 c -1.540243,0 -2.163556,0.62604 -2.482296,2.49315 -0.1098,0.64319 -0.346768,1.21848 -0.526593,1.27842 -0.243586,0.0812 -0.326956,-0.50503 -0.326956,-2.29902 v -2.408 l 6.416146,0.0709 6.416145,0.0708 0.07645,2.3151 c 0.06115,1.85203 0.0018,2.31511 -0.296643,2.31511 -0.24882,0 -0.432619,-0.44876 -0.551814,-1.34729 -0.246752,-1.86011 -1.078417,-2.68089 -2.604465,-2.57038 l -1.121441,0.0812 -0.06911,10.95597 c -0.05981,9.48122 -0.01447,11.03937 0.336829,11.57552 0.223269,0.34075 0.581793,0.61955 0.796719,0.61955 0.214927,0 0.390776,0.17859 0.390776,0.39687 0,0.33161 -0.543866,0.39688 -3.307292,0.39688 -2.587282,0 -3.307292,-0.0772 -3.307292,-0.35441 z m 14.552083,0.008 c 0,-0.1994 0.297656,-0.49817 0.661458,-0.66393 l 0.661458,-0.30138 v -11.1238 -11.12384 l -0.661458,-0.30138 c -0.363802,-0.16576 -0.661458,-0.46087 -0.661458,-0.65579 0,-0.27725 0.720009,-0.3544 3.307291,-0.3544 2.763426,0 3.307292,0.0653 3.307292,0.39687 0,0.21828 -0.160141,0.39688 -0.355868,0.39688 -0.195727,0 -0.552915,0.21773 -0.79375,0.48385 -0.375462,0.41488 -0.437882,1.20829 -0.437882,5.56583 v 5.08198 l 2.579687,-0.0757 2.579688,-0.0757 0.07212,-4.66343 c 0.07583,-4.90368 -0.100951,-6.00549 -1.001344,-6.24095 -0.28929,-0.0756 -0.525981,-0.30226 -0.525981,-0.50356 0,-0.29212 0.667793,-0.36602 3.307291,-0.36602 2.763426,0 3.307292,0.0653 3.307292,0.39687 0,0.21829 -0.171843,0.39688 -0.381872,0.39688 -0.21003,0 -0.567217,0.26462 -0.79375,0.58804 -0.355929,0.50816 -0.411878,2.00967 -0.411878,11.05363 0,9.04395 0.05595,10.54546 0.411878,11.05362 0.226533,0.32343 0.58372,0.58804 0.79375,0.58804 0.210029,0 0.381872,0.1786 0.381872,0.39688 0,0.33161 -0.543866,0.39687 -3.307292,0.39687 -2.639498,0 -3.307291,-0.0739 -3.307291,-0.36601 0,-0.20131 0.236691,-0.42792 0.525981,-0.50357 0.878472,-0.22972 1.061519,-1.33741 1.061519,-6.42368 v -4.87757 h -2.645834 -2.645833 v 5.25066 c 0,4.75073 0.04607,5.29235 0.483854,5.68854 0.26612,0.24084 0.633229,0.43788 0.815799,0.43788 0.182569,0 0.282529,0.14883 0.222133,0.33073 -0.166958,0.50285 -6.548869,0.61663 -6.548869,0.11676 z m 20.813888,0.16988 c -0.293005,-0.29297 -0.198708,-0.61732 0.179479,-0.61732 0.195728,0 0.552915,-0.21774 0.79375,-0.48386 0.392399,-0.43359 0.437462,-1.59473 0.433831,-11.17864 -0.0022,-5.88214 -0.09153,-10.8258 -0.198437,-10.98591 -0.106913,-0.16012 -0.462277,-0.4322 -0.789699,-0.60462 -1.25229,-0.65948 -0.554754,-0.82405 3.492706,-0.82405 4.981248,0 6.34973,0.2596 7.768049,1.47363 1.441763,1.2341 2.029954,2.83871 2.029954,5.53782 0,3.22452 -0.912621,5.05182 -3.181288,6.36974 -0.456787,0.26536 -0.35177,0.60447 1.574404,5.08386 1.135111,2.63974 2.20085,4.91324 2.368309,5.05221 0.16746,0.13898 0.631228,0.3347 1.030596,0.43494 0.399368,0.10023 0.726124,0.3521 0.726124,0.55969 0,0.30691 -0.49871,0.36336 -2.668615,0.30205 l -2.668614,-0.0754 -2.286414,-5.35781 c -2.016222,-4.72467 -2.357461,-5.35782 -2.887635,-5.35782 h -0.601222 l 0.0041,4.56407 c 0.0022,2.51023 0.09153,4.69506 0.198437,4.85518 0.106912,0.16011 0.465612,0.43398 0.797109,0.60859 0.331498,0.1746 0.53283,0.43055 0.447406,0.56877 -0.173916,0.2814 -6.286019,0.35118 -6.562282,0.0749 z m 7.914579,-12.22878 c 1.419233,-0.86545 1.830907,-2.12156 1.830907,-5.5865 0,-2.56686 -0.08276,-3.18321 -0.529166,-3.94109 -0.709695,-1.20488 -1.621746,-1.82949 -2.976563,-2.03849 l -1.124479,-0.17347 v 6.11923 6.11923 l 0.992188,-9.8e-4 c 0.545703,-5.5e-4 1.358904,-0.22462 1.807113,-0.49793 z m 12.811116,12.00829 c 0,-0.21828 0.16014,-0.39688 0.355868,-0.39688 0.195724,0 0.552914,-0.21773 0.793754,-0.48385 0.39228,-0.43347 0.43788,-1.60007 0.43788,-11.20378 0,-10.04928 -0.0303,-10.74733 -0.48386,-11.15782 -0.26612,-0.24083 -0.6233,-0.43788 -0.793747,-0.43788 -0.170442,0 -0.309895,-0.17859 -0.309895,-0.39687 0,-0.33161 0.543862,-0.39688 3.307292,-0.39688 2.48742,0 3.30729,0.0828 3.30729,0.33414 0,0.18377 -0.26789,0.45166 -0.59531,0.59531 l -0.59531,0.26118 -0.069,11.183 -0.069,11.18301 0.66433,0.30269 c 0.36538,0.16648 0.66433,0.46218 0.66433,0.6571 0,0.27725 -0.72001,0.3544 -3.30729,0.3544 -2.76343,0 -3.307291,-0.0653 -3.307292,-0.39687 z m 12.045502,0.14356 c -0.0861,-0.13932 0.20452,-0.44004 0.64584,-0.66825 l 0.80241,-0.41494 v -11.11133 -11.11138 l -0.66146,-0.30138 c -0.36381,-0.16576 -0.66146,-0.46087 -0.66146,-0.65579 0,-0.2849 1.08967,-0.3544 5.55625,-0.3544 h 5.55625 v 2.40329 c 0,1.79026 -0.0834,2.3755 -0.32696,2.29432 -0.17982,-0.0599 -0.41679,-0.63523 -0.52659,-1.27842 -0.1098,-0.64319 -0.42149,-1.46727 -0.69264,-1.8313 -0.43974,-0.59035 -0.71158,-0.6702 -2.51612,-0.73913 l -2.02311,-0.0773 v 5.44892 5.44891 l 1.38906,-0.08 1.38907,-0.08 0.37018,-1.19062 c 0.2036,-0.65485 0.41112,-1.347 0.46115,-1.53813 0.05,-0.19112 0.21087,-0.27339 0.35742,-0.18282 0.15667,0.0968 0.26646,1.57539 0.26646,3.58864 0,2.86714 -0.0645,3.42397 -0.39688,3.42397 -0.24411,0 -0.39687,-0.24797 -0.39687,-0.64423 0,-0.82094 -0.46894,-2.06377 -0.87645,-2.32289 -0.1728,-0.10988 -0.8202,-0.2016 -1.43866,-0.20383 l -1.12448,-0.004 v 5.38296 c 0,4.87889 0.0453,5.42395 0.48386,5.82083 0.26612,0.24083 0.6233,0.43788 0.79375,0.43788 0.17044,0 0.30989,0.1786 0.30989,0.39688 0,0.33151 -0.54213,0.39687 -3.29167,0.39687 -1.81144,0 -3.36208,-0.11391 -3.44824,-0.25331 z m 18.91075,-0.14356 c 0,-0.21828 0.16014,-0.39688 0.35586,-0.39688 0.19573,0 0.55292,-0.21773 0.79375,-0.48385 0.39289,-0.43413 0.43789,-1.6305 0.43789,-11.64167 v -11.15776 h -1.28191 c -0.89194,0 -1.40373,0.14085 -1.68233,0.46302 -0.49024,0.56688 -1.00451,2.04327 -1.00451,2.88375 0,0.37648 -0.15665,0.62198 -0.39688,0.62198 -0.31711,0 -0.39687,-0.39448 -0.39687,-1.96274 0,-1.0795 0.0723,-2.15107 0.16059,-2.38125 0.14025,-0.36547 0.96181,-0.41851 6.4823,-0.41851 h 6.32169 l 0.0496,1.5875 c 0.0273,0.87312 0.0571,1.905 0.0662,2.29305 0.031,1.32176 -0.59084,0.96175 -0.89849,-0.5202 -0.40057,-1.9295 -1.0298,-2.5666 -2.53487,-2.5666 h -1.18032 v 11.38275 11.38276 l 0.66146,0.30138 c 0.3638,0.16576 0.66146,0.46086 0.66146,0.65578 0,0.27725 -0.72001,0.35441 -3.30729,0.35441 -2.76343,0 -3.30729,-0.0653 -3.30729,-0.39688 z m 14.55208,0 c 0,-0.21828 0.17184,-0.39688 0.38187,-0.39688 0.21003,0 0.56722,-0.26461 0.79375,-0.58803 0.35593,-0.50816 0.41188,-2.00968 0.41188,-11.05363 0,-9.04396 -0.056,-10.54547 -0.41188,-11.05363 -0.22653,-0.32342 -0.58372,-0.58804 -0.79375,-0.58804 -0.21003,0 -0.38187,-0.18249 -0.38187,-0.40554 0,-0.34463 0.44475,-0.3943 2.96122,-0.33073 l 2.96122,0.0748 2.39659,9.57172 c 1.31813,5.26444 2.4703,9.64424 2.56038,9.73288 0.0901,0.0886 1.26547,-4.2484 2.61198,-9.63786 l 2.4482,-9.79903 h 2.46563 c 2.53392,0 3.2311,0.26305 2.17355,0.82008 -0.3315,0.17461 -0.6902,0.44848 -0.79711,0.60859 -0.10692,0.16012 -0.19621,5.12447 -0.19844,11.03189 -0.004,10.07238 0.0261,10.76801 0.4798,11.17864 0.26612,0.24084 0.63323,0.43788 0.8158,0.43788 0.18257,0 0.28234,0.14883 0.2217,0.33073 -0.0808,0.24254 -1.05098,0.33073 -3.63802,0.33073 -2.58704,0 -3.55718,-0.0882 -3.63802,-0.33073 -0.0634,-0.19006 0.11173,-0.33073 0.41166,-0.33073 0.28705,0 0.77622,-0.20836 1.08706,-0.46302 0.55739,-0.45666 0.56415,-0.57201 0.49233,-8.40052 l -0.0728,-7.9375 -2.21805,8.80955 -2.21804,8.80955 -1.48612,-0.0783 -1.48612,-0.0783 -2.52855,-10.18646 c -2.20206,-8.87118 -2.55185,-10.04981 -2.70906,-9.12812 -0.22468,1.31718 -0.24562,16.17398 -0.0244,17.28029 0.12655,0.63271 0.39009,0.90124 1.20421,1.22699 0.57321,0.22935 0.96954,0.53459 0.88072,0.6783 -0.0888,0.14371 -1.28555,0.26129 -2.65941,0.26129 -2.04399,0 -2.49793,-0.0721 -2.49793,-0.39687 z m 26.45833,0.0477 c 0,-0.19782 0.29895,-0.49588 0.66434,-0.66236 l 0.66433,-0.30269 -0.069,-11.18301 -0.069,-11.183 -0.59531,-0.26118 c -0.32743,-0.14365 -0.59532,-0.41154 -0.59532,-0.59531 0,-0.25852 1.25744,-0.33414 5.55625,-0.33414 h 5.55625 v 2.4033 c 0,1.79025 -0.0834,2.3755 -0.32695,2.29431 -0.17983,-0.0599 -0.41679,-0.63523 -0.5266,-1.27842 -0.1098,-0.64319 -0.42148,-1.46727 -0.69264,-1.83129 -0.43973,-0.59035 -0.71158,-0.67021 -2.51611,-0.73913 l -2.02311,-0.0773 v 5.03821 5.03821 h 1.29052 c 1.50786,0 1.87167,-0.32284 2.07539,-1.8417 0.0883,-0.65804 0.28247,-1.06871 0.50538,-1.06871 0.28776,0 0.36204,0.70566 0.36204,3.43958 0,2.73392 -0.0743,3.43958 -0.36204,3.43958 -0.22291,0 -0.41712,-0.41068 -0.50538,-1.06871 -0.20389,-1.52014 -0.56713,-1.8417 -2.08036,-1.8417 h -1.29549 l 0.0711,6.01927 0.0711,6.01927 1.86907,0.0768 c 2.37262,0.0974 3.09629,-0.38626 3.70361,-2.47536 0.26471,-0.91056 0.56259,-1.43785 0.81231,-1.43785 0.40426,0 0.39189,0.31371 -0.14084,3.57188 l -0.17305,1.05833 -5.61524,0.0714 c -4.59178,0.0584 -5.61524,0.006 -5.61524,-0.28826 z M -8.7389322,115.2258 c -0.07851,-0.20459 -0.104586,-0.77027 -0.05795,-1.25706 l 0.08479,-0.88509 4.7625,-0.15763 c 5.3973793,-0.17865 8.2125453,-0.63423 12.4354173,-2.01241 5.6964359,-1.8591 9.7326189,-4.14098 17.1544069,-9.69837 6.572997,-4.921816 9.290541,-6.442646 13.354273,-7.473496 4.242546,-1.07621 8.391066,-0.72165 11.103444,0.94897 0.47646,0.29347 0.95271,0.53342 1.058333,0.53322 0.105624,-1.9e-4 0.202254,-1.6373 0.214734,-3.63802 0.01971,-3.15991 0.117318,-3.95041 0.743188,-6.01892 1.234994,-4.08166 3.597287,-7.88647 6.60078,-10.631498 5.842556,-5.339767 13.544088,-7.405283 21.389105,-5.736461 0.654417,0.13921 0.775662,0.01957 1.550547,-1.530093 2.280211,-4.56009 6.514595,-9.518776 10.571813,-12.380147 3.418832,-2.411146 8.123821,-4.491086 12.633851,-5.58506 l 1.12448,-0.272759 0.002,-2.834072 c 0.003,-4.616273 0.68405,-7.809198 2.16817,-10.168748 2.65696,-4.224184 7.5148,-2.843954 9.20063,2.614118 1.23551,4.000112 1.23608,3.881116 -0.26376,55.52056 -0.2874,9.895406 -0.52281,18.080946 -0.52313,18.190096 -3.2e-4,0.10914 7.98163,0.19843 17.73766,0.19843 20.31762,0 20.09167,0.0195 24.4628,-2.11494 4.25895,-2.0797 7.46369,-5.24487 9.51186,-9.39443 1.44871,-2.935066 1.96867,-4.843766 2.17716,-7.991996 0.64551,-9.74758 -5.5289,-18.522761 -15.1286,-21.501026 -3.34349,-1.037302 -10.71563,-0.980228 -10.71563,0.08296 0,0.174922 0.31897,1.505933 0.70883,2.957805 0.65732,2.447971 0.70875,3.024241 0.70783,7.931431 -8.6e-4,4.60135 -0.0755,5.56234 -0.57193,7.36652 -1.20596,4.38256 -3.43073,7.52301 -6.41315,9.05271 -1.15484,0.59232 -1.89217,0.762416 -3.69199,0.851696 -2.13946,0.10613 -2.33191,0.0684 -3.95288,-0.774476 -5.26259,-2.73653 -6.54366,-9.55288 -3.19716,-17.01159 2.05062,-4.57044 6.02044,-8.812067 10.26267,-10.965329 l 1.12825,-0.572676 0.22548,0.602615 c 0.64061,1.712083 0.66273,1.655064 -1.05274,2.713911 -3.26301,2.014046 -6.15145,5.107379 -7.76976,8.320909 -3.32911,6.61073 -2.63991,12.80621 1.64268,14.76684 4.30003,1.96862 8.67429,-1.31103 10.44076,-7.82806 0.73031,-2.69434 0.78828,-9.44012 0.10783,-12.54694 -2.52554,-11.531153 -10.19322,-20.144579 -21.26274,-23.885332 l -2.18281,-0.737644 v -1.146889 c 0,-1.397577 0.14784,-1.420224 3.07508,-0.471032 8.62251,2.795956 16.09289,9.300538 19.9834,17.399876 0.56952,1.185632 0.66808,1.264243 1.41076,1.125127 2.45507,-0.459874 5.50778,-0.699471 7.01618,-0.550676 5.80595,0.572727 10.94893,2.918353 14.75658,6.730222 4.71181,4.717048 6.98701,10.140528 7.02865,16.754488 0.0108,1.70987 0.0677,3.10885 0.12662,3.10885 0.0589,0 0.98343,-0.43313 2.05456,-0.96251 1.70713,-0.8437 2.25285,-0.97848 4.42126,-1.0919 4.39529,-0.2299 8.49263,0.95386 12.91547,3.73141 1.22145,0.76707 4.06628,2.77103 6.32186,4.453246 8.8625,6.60969 13.6543,9.04998 21.03437,10.71206 2.29891,0.51774 3.95198,0.68682 7.86768,0.80472 5.4264,0.16339 5.58981,0.2149 5.44569,1.71641 l -0.0842,0.87718 -120.85663,0.0664 C 8.6283921,115.5883 -8.6165362,115.5447 -8.7389322,115.22576 Z m 46.0639532,-3.28589 c -0.368142,-0.5563 -0.808404,-1.6744 -0.978359,-2.48467 -0.638669,-3.04487 0.686458,-5.8744 3.492283,-7.45702 1.215392,-0.68555 1.739792,-0.82082 3.182063,-0.82082 2.399941,0 4.012082,0.84713 5.378449,2.82621 1.085811,1.57271 1.132387,2.34768 0.171986,2.86167 -0.700823,0.37507 -1.181282,0.11032 -1.974194,-1.08785 -1.862838,-2.81494 -5.314715,-2.81041 -7.215028,0.01 -0.431095,0.6397 -0.601609,1.27651 -0.601609,2.24679 0,1.87416 0.672918,3.01467 2.394144,4.05778 1.255369,0.76079 1.640197,0.8599 3.338914,0.8599 7.154239,0 11.118229,-7.18818 7.255949,-13.157706 -2.275328,-3.51678 -5.892572,-4.80353 -11.004632,-3.91469 -3.941752,0.68535 -6.875509,2.26472 -14.022917,7.549146 -6.38854,4.72336 -9.90858,6.85088 -15.213542,9.1951 -0.494273,0.21842 2.766776,0.29682 12.902192,0.31021 l 13.56365,0.0179 z m 24.736717,-0.10136 c -0.944672,-0.61205 -2.720754,-2.09443 -3.946849,-3.2942 -1.226095,-1.19976 -2.327423,-2.12072 -2.447396,-2.04657 -0.119972,0.0742 -0.219295,0.39568 -0.220716,0.71451 -0.0038,0.8584 -1.21555,3.30774 -2.277545,4.60377 l -0.930298,1.1353 h 5.770194 5.770194 z m 45.541752,-1.26844 c -0.0278,-1.23692 -0.28096,-10.702386 -0.56252,-21.034366 -0.80106,-29.396335 -0.9078,-35.748 -0.60391,-35.935814 0.1484,-0.09172 0.94079,-0.245624 1.76085,-0.342007 l 1.49103,-0.17524 v 0.841332 c 0,1.345787 0.79146,4.804361 1.34994,5.899078 0.78274,1.534288 1.80945,1.249698 2.57744,-0.714429 0.5363,-1.371592 1.09033,-4.434988 1.09511,-6.055221 l 0.005,-1.557305 -3.9026,0.142135 c -4.49542,0.163724 -7.42782,0.809013 -11.317224,2.490411 -6.745561,2.916119 -12.716925,8.674189 -15.855637,15.289284 -2.167285,4.567729 -2.929144,8.177326 -2.905892,13.767776 0.01973,4.74363 0.400458,6.88255 1.695457,9.525 1.119573,2.2845 2.173008,3.42315 4.021547,4.34688 2.584356,1.29141 4.848678,1.00644 6.790136,-0.85456 1.698848,-1.62845 2.027547,-2.60306 2.025549,-6.00586 -0.0015,-2.63192 -0.09689,-3.30368 -0.706229,-4.97571 -1.559901,-4.2804 -4.696767,-8.24194 -8.474637,-10.702585 -1.134176,-0.738726 -2.062139,-1.446202 -2.062139,-1.572169 0,-0.125967 0.176174,-0.650673 0.391497,-1.166014 l 0.391497,-0.936984 1.298323,0.706635 c 5.111711,2.782142 9.390391,8.091247 11.189563,13.884327 0.486975,1.56799 0.616655,2.59508 0.618019,4.89479 0.0016,2.70942 -0.05487,3.02919 -0.817798,4.63021 -0.945269,1.98367 -2.502822,3.69287 -4.130495,4.53265 -1.693063,0.873516 -4.88963,0.991056 -6.849029,0.25185 -3.19879,-1.2068 -5.899209,-4.64374 -7.106675,-9.04499 -1.182863,-4.31157 -1.13147,-11.07163 0.121728,-16.011889 0.36302,-1.431068 0.660037,-2.677701 0.660037,-2.770294 0,-0.456887 -3.364003,-0.838303 -6.03242,-0.683966 -3.403832,0.196873 -5.304192,0.67161 -8.143349,2.034326 -6.331731,3.039053 -10.753974,9.079873 -11.739026,16.035593 -0.352818,2.49134 0.0647,6.72662 0.914811,9.27978 1.94658,5.846216 6.439003,10.658646 12.098458,12.960266 3.348362,1.36173 3.516637,1.37149 22.798163,1.32208 l 17.966425,-0.046 z m 63.95208,1.65365 c -1.20276,-1.29835 -2.00847,-2.72349 -2.48969,-4.4038 l -0.47151,-1.64641 -2.26678,2.28048 c -1.24672,1.25426 -3.01091,2.73666 -3.92042,3.29422 -0.9095,0.55756 -1.65364,1.05635 -1.65364,1.10843 0,0.0521 2.58212,0.0947 5.73804,0.0947 h 5.73804 z m 11.02608,0.22599 c 2.68958,-1.24523 3.75369,-3.94667 2.51276,-6.37909 -1.23602,-2.4228 -4.34349,-3.19537 -6.22123,-1.54669 -0.52182,0.45817 -1.11997,1.1641 -1.32922,1.56875 -0.5205,1.00654 -1.3622,1.23781 -2.03959,0.56041 -0.67461,-0.67461 -0.50134,-1.46071 0.6629,-3.00752 2.36452,-3.14151 7.08448,-3.34491 9.99851,-0.43087 1.29136,1.29136 1.93605,2.9466 1.94293,4.9885 0.005,1.46987 -0.12377,1.96384 -0.84464,3.24115 l -0.85048,1.50697 13.42986,-0.002 13.42987,-0.002 -3.74527,-1.83752 c -3.98042,-1.95289 -6.519,-3.5776 -12.26202,-7.84773 -8.34967,-6.208276 -11.37375,-7.595276 -16.53646,-7.584496 -4.10677,0.009 -7.06586,1.7048 -8.74079,5.010436 -0.70051,1.38254 -0.78302,1.80189 -0.77305,3.92898 0.01,2.04983 0.10923,2.5701 0.71573,3.73809 1.11459,2.14643 2.91249,3.64251 5.22623,4.34887 1.30866,0.39952 4.31647,0.25856 5.42396,-0.2542 z M 114.7918,48.723768 c 0.20368,-0.377707 -0.31842,-5.232886 -0.75406,-7.012258 -0.48239,-1.97031 -1.20769,-3.108053 -1.98137,-3.108053 -1.04754,0 -2.12296,3.477418 -2.51612,8.135936 l -0.18422,2.182813 h 2.66438 c 1.46541,0 2.71254,-0.0893 2.77139,-0.198438 z"
       id="path1" /></g></svg>
